# Blender v2.69 (sub 0) OBJ File: 'map.blend'
# www.blender.org
mtllib map.mtl
o Cube
v 2.902119 -0.188386 -3.286308
v 2.902119 -0.188386 3.286308
v -2.902120 -0.188386 3.286307
v -2.902118 -0.188386 -3.286309
v 2.902121 0.188386 -3.286306
v 2.902117 0.188386 3.286310
v -2.902120 0.188386 3.286307
v -2.902119 0.188386 -3.286308
v 0.000001 -0.188386 -3.286308
v 0.000000 -0.188386 3.286307
v 0.000001 0.188386 -3.286307
v -0.000002 0.188386 3.286308
v 2.902119 -0.188386 -0.001056
v -2.902119 -0.188386 -0.001057
v 2.902119 0.188386 -0.001055
v -2.902120 0.188386 -0.001057
v 0.000000 -0.188386 -0.001057
v -0.000000 0.188386 -0.001056
v 2.902119 -0.188386 1.642626
v 2.902118 0.188386 1.642628
v -0.000001 0.188386 1.642626
v -2.902119 -0.188386 1.642625
v -2.902120 0.188386 1.642625
v 0.000000 -0.188386 1.642625
v 1.451060 -0.188386 -3.286308
v 1.451060 -0.188386 3.286308
v 1.451061 0.188386 -3.286307
v 1.451058 0.188386 3.286309
v 1.451060 -0.188386 -0.001057
v 1.451059 0.188386 -0.001055
v 1.451060 -0.188386 1.642626
v 1.451059 0.929358 1.642627
v 2.902119 -0.188386 2.464467
v 2.902118 0.188386 2.464469
v -0.000001 0.188386 2.464467
v -2.902119 -0.188386 2.464466
v -2.902120 0.188386 2.464466
v 0.000000 -0.188386 2.464466
v 1.451060 -0.188386 2.464467
v 1.451058 0.188386 2.464468
v 2.902119 -0.188386 0.820785
v 2.902119 0.188386 0.820786
v -0.000001 0.188386 0.820785
v -2.902119 -0.188386 0.820784
v -2.902120 0.188386 0.820784
v 0.000000 -0.188386 0.820784
v 1.451060 -0.188386 0.820785
v 1.451059 0.188386 0.820786
v 2.176590 -0.188386 -3.286308
v 2.176589 -0.188386 3.286308
v 2.176591 0.188386 -3.286306
v 2.176588 0.188386 3.286309
v 2.176589 0.188386 -0.001055
v 2.176589 0.188386 1.642627
v 2.176589 -0.188386 -0.001056
v 2.176589 -0.188386 1.642626
v 2.176589 -0.188386 2.464467
v 2.176588 0.449358 2.464468
v 2.176589 -0.188386 0.820785
v 2.176589 0.715274 0.820786
v 0.725530 -0.188386 -0.001057
v 0.725530 -0.188386 1.642626
v 0.725530 -0.188386 -3.286308
v 0.725530 -0.188386 3.286307
v 0.725531 0.188386 -3.286307
v 0.725528 0.188386 3.286309
v 0.725529 0.188386 -0.001056
v 0.725529 0.188386 1.642627
v 0.725530 -0.188386 2.464466
v 0.725529 0.584023 2.464468
v 0.725530 -0.188386 0.820784
v 0.725529 0.614291 0.820786
v -0.000001 0.188386 0.409865
v -2.902120 0.188386 0.409863
v -0.000001 0.188386 0.204404
v -2.902120 0.188386 0.204403
v -0.000001 0.188386 0.615325
v -2.902120 0.188386 0.615324
v 0.000001 -0.188383 -4.253909
v 0.000001 0.188389 -4.253907
v 1.451060 -0.188383 -4.253908
v 1.451061 0.188389 -4.253907
v 0.725531 -0.188383 -4.253908
v 0.725531 0.188389 -4.253907
v -3.968755 -0.188388 1.642625
v -3.968756 0.188384 1.642625
v -3.968755 -0.188388 2.464466
v -3.968756 0.188384 2.464466
v -3.968755 -0.188388 0.820784
v -3.968756 0.188384 0.820784
vn 1.000000 0.000005 0.000001
vn -0.000001 -0.000003 1.000000
vn 0.000000 -1.000000 0.000000
vn -0.478753 0.877950 -0.000000
vn 0.000000 -0.000003 1.000000
vn 0.000000 -1.000000 -0.000003
vn 1.000000 0.000002 0.000000
vn -0.506245 0.862390 -0.000000
vn -0.338468 0.940978 -0.000000
vn -0.000001 -0.000004 1.000000
vn -0.474712 0.653683 -0.589361
vn 1.000000 0.000002 0.000001
vn 0.000000 0.901029 -0.433759
vn -1.000000 -0.000002 -0.000000
vn 0.697507 0.682971 -0.216874
vn 0.000000 0.000000 -1.000000
vn -0.462187 0.787337 -0.408024
vn 0.000000 0.841848 -0.539715
vn 0.338468 0.940978 0.000000
vn 0.000000 -0.000005 1.000000
vn 0.587610 0.809144 0.000000
vn 0.000000 0.953101 -0.302652
vn 0.478753 0.877950 0.000000
vn -0.000000 1.000000 0.000003
vn 0.399654 0.680811 -0.613819
vn -0.677139 0.663027 -0.319184
vn 0.000000 0.887858 -0.460117
vn 0.000001 0.000003 -1.000000
vn 0.000000 0.000004 -1.000000
vn 1.000000 -0.000002 0.000000
vn -1.000000 0.000000 -0.000000
vn 0.000002 -1.000000 0.000000
vn 0.000000 0.000001 1.000000
vn 1.000000 0.000005 0.000000
vn 0.000000 0.000002 1.000000
vn -0.000000 0.901029 0.433759
vn 1.000000 0.000003 0.000000
vn -0.000000 0.887858 0.460117
vn -0.000000 0.953101 0.302652
vn 0.000000 -0.000004 1.000000
vn 0.651937 0.638351 0.409252
vn -0.258098 0.717540 0.646933
vn 0.000000 1.000000 -0.000000
vn -0.587610 0.809144 -0.000000
vn 0.000000 0.953101 0.302653
vn -0.000000 0.841848 0.539715
vn -0.671725 0.657726 0.340855
vn 0.375383 0.688389 0.620651
vn 0.506245 0.862390 0.000000
vn 0.000002 0.000003 -1.000000
vn -1.000000 -0.000003 -0.000000
vn 0.000000 0.000003 -1.000000
vn 1.000000 -0.000005 0.000001
vn -1.000000 -0.000001 -0.000000
vn -1.000000 0.000000 -0.000002
vn -0.000002 1.000000 0.000000
usemtl Material
s off
f 33//1 34//1 6//1
f 10//2 12//2 7//2
f 69//3 64//3 38//3
f 70//4 35//4 12//4
f 64//5 66//5 12//5
f 25//6 63//6 81//6
f 41//7 42//7 20//7
f 71//3 62//3 46//3
f 72//8 43//8 21//8
f 57//3 50//3 39//3
f 58//9 40//9 28//9
f 50//10 52//10 28//10
f 59//3 56//3 47//3
f 60//11 48//11 32//11
f 19//12 20//12 34//12
f 62//3 69//3 24//3
f 68//13 21//13 70//13
f 3//14 7//14 37//14
f 56//3 57//3 31//3
f 54//15 32//15 58//15
f 45//16 44//16 90//16
f 13//12 15//12 42//12
f 61//3 71//3 17//3
f 72//17 67//17 43//17
f 55//3 59//3 29//3
f 53//18 30//18 60//18
f 33//3 2//3 57//3
f 34//19 58//19 6//19
f 2//20 6//20 52//20
f 41//3 19//3 59//3
f 42//21 60//21 20//21
f 19//3 33//3 56//3
f 20//22 54//22 58//22
f 13//3 41//3 55//3
f 15//18 53//18 60//18
f 39//3 26//3 69//3
f 40//23 70//23 28//23
f 26//10 28//10 66//10
f 65//24 27//24 84//24
f 47//3 31//3 71//3
f 48//25 72//25 32//25
f 31//3 39//3 62//3
f 32//26 68//26 70//26
f 29//3 47//3 61//3
f 30//27 67//27 72//27
f 84//28 83//28 79//28
f 82//29 81//29 83//29
f 27//30 25//30 82//30
f 11//24 65//24 80//24
f 63//6 9//6 83//6
f 9//31 11//31 79//31
f 87//14 88//14 86//14
f 85//14 86//14 89//14
f 44//32 22//32 89//32
f 36//33 37//33 87//33
f 22//32 36//32 85//32
f 2//34 33//34 6//34
f 3//35 10//35 7//35
f 64//3 10//3 38//3
f 66//36 70//36 12//36
f 10//5 64//5 12//5
f 63//6 83//6 81//6
f 19//37 41//37 20//37
f 62//3 24//3 46//3
f 68//38 72//38 21//38
f 50//3 26//3 39//3
f 52//39 58//39 28//39
f 26//40 50//40 28//40
f 56//3 31//3 47//3
f 54//41 60//41 32//41
f 33//34 19//34 34//34
f 69//3 38//3 24//3
f 21//4 35//4 70//4
f 36//14 3//14 37//14
f 57//3 39//3 31//3
f 32//42 40//42 58//42
f 44//16 89//16 90//16
f 41//7 13//7 42//7
f 71//3 46//3 17//3
f 67//43 18//43 75//43
f 67//43 75//43 73//43
f 43//43 67//43 77//43
f 67//43 73//43 77//43
f 59//3 47//3 29//3
f 30//44 48//44 60//44
f 2//3 50//3 57//3
f 58//45 52//45 6//45
f 50//40 2//40 52//40
f 19//3 56//3 59//3
f 60//46 54//46 20//46
f 33//3 57//3 56//3
f 34//19 20//19 58//19
f 41//3 59//3 55//3
f 42//21 15//21 60//21
f 26//3 64//3 69//3
f 70//36 66//36 28//36
f 64//2 26//2 66//2
f 27//24 82//24 84//24
f 31//3 62//3 71//3
f 72//47 68//47 32//47
f 39//3 69//3 62//3
f 40//48 32//48 70//48
f 47//3 71//3 61//3
f 48//49 30//49 72//49
f 80//29 84//29 79//29
f 84//50 82//50 83//50
f 25//30 81//30 82//30
f 65//24 84//24 80//24
f 9//6 79//6 83//6
f 11//31 80//31 79//31
f 85//14 87//14 86//14
f 86//14 90//14 89//14
f 22//32 85//32 89//32
f 37//33 88//33 87//33
f 36//32 87//32 85//32
usemtl Material.001
f 38//3 10//3 36//3
f 14//51 16//51 4//51
f 11//52 9//52 8//52
f 9//3 17//3 4//3
f 1//53 5//53 15//53
f 44//51 45//51 78//51
f 63//3 61//3 9//3
f 46//3 24//3 44//3
f 51//29 49//29 25//29
f 49//3 55//3 25//3
f 24//3 38//3 22//3
f 17//3 46//3 14//3
f 5//29 1//29 49//29
f 1//3 13//3 49//3
f 16//43 11//43 8//43
f 25//3 29//3 63//3
f 10//3 3//3 36//3
f 16//54 8//54 4//54
f 9//52 4//52 8//52
f 17//3 14//3 4//3
f 13//7 1//7 15//7
f 14//14 44//14 78//14
f 16//55 14//55 76//55
f 14//14 78//14 74//14
f 76//51 14//51 74//51
f 61//3 17//3 9//3
f 24//3 22//3 44//3
f 27//50 51//50 25//50
f 55//3 29//3 25//3
f 38//3 36//3 22//3
f 46//3 44//3 14//3
f 51//29 5//29 49//29
f 13//3 55//3 49//3
f 35//43 7//43 12//43
f 35//43 37//43 7//43
f 21//43 37//43 35//43
f 21//43 23//43 37//43
f 43//43 23//43 21//43
f 43//43 45//43 23//43
f 51//43 15//43 5//43
f 51//43 53//43 15//43
f 51//43 27//43 53//43
f 53//43 27//43 30//43
f 27//43 65//43 30//43
f 30//43 65//43 67//43
f 65//43 11//43 67//43
f 67//43 11//43 18//43
f 11//43 16//43 18//43
f 77//43 45//43 43//43
f 77//43 78//43 45//43
f 73//43 78//43 77//43
f 73//43 74//43 78//43
f 75//43 74//43 73//43
f 16//43 76//43 18//43
f 76//43 74//43 18//43
f 74//43 75//43 18//43
f 29//3 61//3 63//3
usemtl Material.002
f 23//56 45//56 86//56
f 37//56 23//56 88//56
f 45//56 90//56 86//56
f 23//56 86//56 88//56
